<svg xmlns="http://www.w3.org/2000/svg" xmlns:xlink="http://www.w3.org/1999/xlink" version="1.1" id="Capa_1" x="0px" y="0px" width="985px" height="985px" viewBox="0 0 985 985" style="enable-background:new 0 0 985 985;" xml:space="preserve">
<g>
	<path d="M915,61.55H70c-38.7,0-70,31.3-70,70c0,38.7,31.3,70,70,70h845c38.7,0,70-31.3,70-70C985,92.85,953.7,61.55,915,61.55z" style="fill: rgb(0, 109, 240);"></path>
	<path d="M985,612.851c0-38.701-31.3-70-70-70H70c-38.7,0-70,31.299-70,70c0,38.699,31.3,70,70,70h845   C953.7,682.851,985,651.45,985,612.851z" style="fill: rgb(240, 81, 51);"></path>
	<path d="M70,442.15h695.4c38.699,0,70-31.3,70-70s-31.301-70-70-70H70c-38.7,0-70,31.3-70,70S31.3,442.15,70,442.15z" style="fill: rgb(0, 109, 240);"></path>
	<path d="M592.3,853.45c0-38.701-31.3-70-70-70H70c-38.7,0-70,31.299-70,70c0,38.699,31.3,70,70,70h452.3   C561,923.45,592.3,892.149,592.3,853.45z" style="fill: rgb(0, 109, 240);"></path>
</g>
<g>
</g>
<g>
</g>
<g>
</g>
<g>
</g>
<g>
</g>
<g>
</g>
<g>
</g>
<g>
</g>
<g>
</g>
<g>
</g>
<g>
</g>
<g>
</g>
<g>
</g>
<g>
</g>
<g>
</g>
</svg>